<?xml version="1.0" standalone="no"?>
<!DOCTYPE svg PUBLIC "-//W3C//DTD SVG 20010904//EN"
 "http://www.w3.org/TR/2001/REC-SVG-20010904/DTD/svg10.dtd">
<svg version="1.0" xmlns="http://www.w3.org/2000/svg"
 width="1524.000000pt" height="1524.000000pt" viewBox="0 0 1524.000000 1524.000000"
 preserveAspectRatio="xMidYMid meet">
<metadata>
Created by potrace 1.11, written by Peter Selinger 2001-2013
</metadata>
<g transform="translate(0.000000,1524.000000) scale(0.100000,-0.100000)"
fill="#000000" stroke="none">
<path d="M10655 12512 c-84 -7 -231 -38 -323 -68 -391 -127 -710 -401 -894
-768 -40 -80 -112 -282 -123 -346 -12 -69 -15 -85 -22 -110 -4 -14 -8 -1028
-10 -2255 -1 -1227 -2 -2247 -3 -2267 l0 -37 -102 -3 -103 -3 -1 -102 c0 -57
-4 -106 -8 -110 -4 -4 -627 -8 -1384 -9 -1520 -1 -1433 2 -1601 -65 -212 -85
-416 -278 -502 -476 -25 -56 -58 -156 -64 -192 -2 -14 -7 -42 -11 -61 -9 -47
-12 -2762 -3 -2775 8 -11 2735 -12 2779 -1 14 4 41 9 60 12 50 8 137 37 202
68 259 123 455 370 514 651 15 71 18 279 18 1490 l1 1350 102 -1 103 -1 1 36
c0 20 0 71 0 114 l-1 77 2227 1 c1226 0 2242 2 2258 4 17 2 51 6 77 9 81 10
150 27 257 62 376 125 674 377 868 735 71 131 144 361 161 508 9 85 9 3138 0
3211 -50 386 -233 720 -533 974 -101 86 -180 137 -321 205 -101 50 -253 101
-354 120 -30 6 -68 13 -85 17 -28 6 -3112 12 -3180 6z"/>
<path d="M5655 10978 c-328 -61 -598 -267 -740 -565 -19 -40 -47 -112 -62
-160 l-28 -88 0 -1534 0 -1535 1505 1 c1652 1 1552 -2 1727 61 131 48 242 118
349 221 157 151 260 349 293 561 9 55 11 364 9 1155 l-3 1080 -23 75 c-82 265
-239 467 -475 608 -66 39 -208 97 -265 107 -15 2 -49 9 -77 14 -65 13 -2141
12 -2210 -1z"/>
<path d="M2373 9749 c-91 -23 -137 -43 -207 -91 -126 -86 -217 -215 -254 -366
-17 -68 -19 -133 -18 -1000 l1 -927 922 -1 c954 -2 973 -1 1078 39 179 68 315
213 376 402 23 70 23 74 24 741 2 612 1 677 -15 741 -61 237 -230 405 -468
465 -33 8 -240 12 -709 13 -602 2 -668 0 -730 -16z"/>
<path d="M1810 7318 l0 -48 -572 -1 c-315 0 -583 -2 -596 -5 -13 -2 -51 -17
-85 -33 -76 -36 -148 -109 -185 -189 l-27 -57 -3 -592 -3 -592 571 1 c348 0
586 4 608 10 151 41 258 158 287 314 2 10 4 272 4 582 l1 562 40 0 c25 0 40 5
41 13 1 6 2 25 3 40 3 33 -5 40 -51 41 -33 1 -33 1 -33 -46z"/>
<path d="M4680 7023 c0 -40 -3 -73 -7 -74 -5 -1 -420 -3 -923 -4 -503 -2 -928
-5 -945 -8 -98 -17 -219 -77 -298 -148 -56 -50 -137 -161 -157 -215 -6 -16
-13 -36 -17 -44 -9 -20 -8 -16 -21 -95 -9 -52 -12 -297 -10 -970 l3 -900 900
0 c495 -1 920 3 945 7 76 14 84 16 130 33 107 38 216 122 283 218 53 75 73
118 97 205 20 72 19 -16 23 1277 l2 640 55 1 c30 1 60 2 67 3 8 1 11 23 10 73
l-2 73 -67 0 -68 1 0 -73z"/>
</g>
</svg>
